# xmcd
#
# Track frame offsets:
#	182
#	17195
#	35287
#	52412
#	90635
#	108227
#	122340
#	152450
#	165400
#
# Disc length: 2503 seconds
#
# Revision: 3
# Processed by: cddbd v1.5.2PL0 Copyright (c) Steve Scherf et al.
# Submitted via: audiograbber 1.83.01
#
DISCID=6309c509
DTITLE=Jimi Hendrix - On The Killing Floor (The Authentic PPX Studio Recordings
DTITLE=Vol. 6)
DYEAR=1996
DGENRE=Rock
TTITLE0=Killing Floor (22) alt.(4) instruments central
TTITLE1=Money (3) alt 2 verses gtr.solo
TTITLE2=California Night (6) enhanced stereo (1) Nobody Loves Me
TTITLE3=Love Love (8) alt.(2) (Studio, Instr.central)
TTITLE4=You Got Me Running (5) enhanced stereo (1)
TTITLE5=Mr. Pitiful (2) alt.mix (1) instr.central
TTITLE6=Hush Now (4) longer vers.(3) dr loud, slow echo gtr., fades early
TTITLE7=No Business (2) instr.mix (1) no clean bs.- Sleepy Fate
TTITLE8=Satisfaction (4) alt.mix (2) longer
EXTD=(p) and (c) SPV Records 088-29802\nOriginal Producer: Ed Chalpin, PPX Studio
EXTD=s, New York YEAR: 199
EXTT0=
EXTT1=
EXTT2=
EXTT3=
EXTT4=
EXTT5=
EXTT6=
EXTT7=
EXTT8=
PLAYORDER=
